HIERARCHY
ROOT hips
{
	OFFSET -0.003675 0.299928 -0.021708
	CHANNELS 6 Xposition Yposition Zposition Xrotation Yrotation Zrotation
	JOINT LowerBack
	{
		OFFSET 0.000919 0.177588 0.009275
		CHANNELS 3 Xrotation Yrotation Zrotation
		JOINT spine
		{
			OFFSET 0.000919 0.177588 0.009275
			CHANNELS 3 Xrotation Yrotation Zrotation
			JOINT chest
			{
				OFFSET 0.000456 0.100015 0.004638
				CHANNELS 3 Xrotation Yrotation Zrotation
				JOINT neck
				{
					OFFSET 0.000456 0.100015 0.004638
					CHANNELS 3 Xrotation Yrotation Zrotation
					JOINT head
					{
						OFFSET 0.000924 0.155147 0.009274
						CHANNELS 6 Xposition Yposition Zposition Xrotation Yrotation Zrotation
						End Site
						{
							OFFSET 0.000000 0.153400 0.000000
						}
					}
				}
				JOINT shoulder.L
				{
					OFFSET 0.019937 0.078966 0.057518
					CHANNELS 6 Xposition Yposition Zposition Yrotation Xrotation Zrotation
					JOINT upper_arm.L
					{
						OFFSET 0.177024 -0.020465 -0.095062
						CHANNELS 6 Xposition Yposition Zposition Xrotation Yrotation Zrotation
						JOINT forearm.L
						{
							OFFSET 0.247100 -0.135500 -0.061800
							CHANNELS 3 Xrotation Yrotation Zrotation
							JOINT hand.L
							{
								OFFSET 0.217000 -0.143000 0.039300
								CHANNELS 3 Xrotation Yrotation Zrotation
								JOINT palm.01.L
								{
									OFFSET 0.021770 -0.038291 0.012954
									CHANNELS 6 Xposition Yposition Zposition Yrotation Xrotation Zrotation
									JOINT f_index.01.L
									{
										OFFSET 0.053215 -0.044137 0.008236
										CHANNELS 3 Xrotation Yrotation Zrotation
										JOINT f_index.02.L
										{
											OFFSET 0.036108 -0.024723 -0.010656
											CHANNELS 3 Xrotation Yrotation Zrotation
											JOINT f_index.03.L
											{
												OFFSET 0.021342 -0.014948 -0.010846
												CHANNELS 3 Xrotation Yrotation Zrotation
												End Site
												{
													OFFSET 0.015600 -0.009860 -0.013421
												}
											}
										}
									}
									JOINT thumb.01.L
									{
										OFFSET -0.009090 -0.002348 -0.024223
										CHANNELS 6 Xposition Yposition Zposition Xrotation Yrotation Zrotation
										JOINT thumb.02.L
										{
											OFFSET 0.019713 -0.035076 -0.011120
											CHANNELS 3 Xrotation Yrotation Zrotation
											JOINT thumb.03.L
											{
												OFFSET 0.024877 -0.021748 -0.005176
												CHANNELS 3 Xrotation Yrotation Zrotation
												End Site
												{
													OFFSET 0.016125 -0.013029 -0.001569
												}
											}
										}
									}
								}
								JOINT palm.02.L
								{
									OFFSET 0.032823 -0.025104 0.012281
									CHANNELS 6 Xposition Yposition Zposition Yrotation Xrotation Zrotation
									JOINT f_middle.01.L
									{
										OFFSET 0.055723 -0.038469 0.008037
										CHANNELS 3 Xrotation Yrotation Zrotation
										JOINT f_middle.02.L
										{
											OFFSET 0.038167 -0.027473 -0.015582
											CHANNELS 3 Xrotation Yrotation Zrotation
											JOINT f_middle.03.L
											{
												OFFSET 0.021707 -0.016587 -0.017037
												CHANNELS 3 Xrotation Yrotation Zrotation
												End Site
												{
													OFFSET 0.014112 -0.010584 -0.014294
												}
											}
										}
									}
								}
								JOINT palm.03.L
								{
									OFFSET 0.039230 -0.011402 0.008390
									CHANNELS 6 Xposition Yposition Zposition Yrotation Xrotation Zrotation
									JOINT f_ring.01.L
									{
										OFFSET 0.061796 -0.031470 0.007910
										CHANNELS 3 Xrotation Yrotation Zrotation
										JOINT f_ring.02.L
										{
											OFFSET 0.033092 -0.023401 -0.019127
											CHANNELS 3 Xrotation Yrotation Zrotation
											JOINT f_ring.03.L
											{
												OFFSET 0.021392 -0.015362 -0.017824
												CHANNELS 3 Xrotation Yrotation Zrotation
												End Site
												{
													OFFSET 0.008670 -0.007297 -0.014686
												}
											}
										}
									}
								}
								JOINT palm.04.L
								{
									OFFSET 0.043417 0.002450 0.002889
									CHANNELS 6 Xposition Yposition Zposition Yrotation Xrotation Zrotation
									JOINT f_pinky.01.L
									{
										OFFSET 0.069986 -0.026156 0.003627
										CHANNELS 3 Xrotation Yrotation Zrotation
										JOINT f_pinky.02.L
										{
											OFFSET 0.018520 -0.012813 -0.016429
											CHANNELS 3 Xrotation Yrotation Zrotation
											JOINT f_pinky.03.L
											{
												OFFSET 0.013822 -0.009796 -0.014947
												CHANNELS 3 Xrotation Yrotation Zrotation
												End Site
												{
													OFFSET 0.007238 -0.006103 -0.011657
												}
											}
										}
									}
								}
							}
						}
					}
				}
				JOINT shoulder.R
				{
					OFFSET -0.016662 0.078957 0.057696
					CHANNELS 6 Xposition Yposition Zposition Yrotation Xrotation Zrotation
					JOINT upper_arm.R
					{
						OFFSET -0.176972 -0.020537 -0.095144
						CHANNELS 6 Xposition Yposition Zposition Xrotation Yrotation Zrotation
						JOINT forearm.R
						{
							OFFSET -0.247100 -0.135500 -0.061800
							CHANNELS 3 Xrotation Yrotation Zrotation
							JOINT hand.R
							{
								OFFSET -0.217000 -0.143000 0.039300
								CHANNELS 3 Xrotation Yrotation Zrotation
								JOINT palm.01.R
								{
									OFFSET -0.021773 -0.038278 0.012988
									CHANNELS 6 Xposition Yposition Zposition Yrotation Xrotation Zrotation
									JOINT f_index.01.R
									{
										OFFSET -0.053212 -0.044139 0.008249
										CHANNELS 3 Xrotation Yrotation Zrotation
										JOINT f_index.02.R
										{
											OFFSET -0.036049 -0.024835 -0.010634
											CHANNELS 3 Xrotation Yrotation Zrotation
											JOINT f_index.03.R
											{
												OFFSET -0.021371 -0.014881 -0.010866
												CHANNELS 3 Xrotation Yrotation Zrotation
												End Site
												{
													OFFSET -0.015584 -0.009883 -0.013422
												}
											}
										}
									}
									JOINT thumb.01.R
									{
										OFFSET 0.009113 -0.002381 -0.024211
										CHANNELS 6 Xposition Yposition Zposition Xrotation Yrotation Zrotation
										JOINT thumb.02.R
										{
											OFFSET -0.019694 -0.035097 -0.011088
											CHANNELS 3 Xrotation Yrotation Zrotation
											JOINT thumb.03.R
											{
												OFFSET -0.024867 -0.021762 -0.005168
												CHANNELS 3 Xrotation Yrotation Zrotation
												End Site
												{
													OFFSET -0.016120 -0.013036 -0.001565
												}
											}
										}
									}
								}
								JOINT palm.02.R
								{
									OFFSET -0.032828 -0.025095 0.012286
									CHANNELS 6 Xposition Yposition Zposition Yrotation Xrotation Zrotation
									JOINT f_middle.01.R
									{
										OFFSET -0.055721 -0.038472 0.008040
										CHANNELS 3 Xrotation Yrotation Zrotation
										JOINT f_middle.02.R
										{
											OFFSET -0.038101 -0.027593 -0.015557
											CHANNELS 3 Xrotation Yrotation Zrotation
											JOINT f_middle.03.R
											{
												OFFSET -0.021730 -0.016530 -0.017054
												CHANNELS 3 Xrotation Yrotation Zrotation
												End Site
												{
													OFFSET -0.014096 -0.010608 -0.014293
												}
											}
										}
									}
								}
								JOINT palm.03.R
								{
									OFFSET -0.039192 -0.011488 0.008390
									CHANNELS 6 Xposition Yposition Zposition Yrotation Xrotation Zrotation
									JOINT f_ring.01.R
									{
										OFFSET -0.061839 -0.031387 0.007876
										CHANNELS 3 Xrotation Yrotation Zrotation
										JOINT f_ring.02.R
										{
											OFFSET -0.033068 -0.023437 -0.019125
											CHANNELS 3 Xrotation Yrotation Zrotation
											JOINT f_ring.03.R
											{
												OFFSET -0.021371 -0.015393 -0.017822
												CHANNELS 3 Xrotation Yrotation Zrotation
												End Site
												{
													OFFSET -0.008654 -0.007321 -0.014684
												}
											}
										}
									}
								}
								JOINT palm.04.R
								{
									OFFSET -0.043421 0.002443 0.002845
									CHANNELS 6 Xposition Yposition Zposition Yrotation Xrotation Zrotation
									JOINT f_pinky.01.R
									{
										OFFSET -0.069983 -0.026169 0.003599
										CHANNELS 3 Xrotation Yrotation Zrotation
										JOINT f_pinky.02.R
										{
											OFFSET -0.018501 -0.012842 -0.016428
											CHANNELS 3 Xrotation Yrotation Zrotation
											JOINT f_pinky.03.R
											{
												OFFSET -0.013806 -0.009821 -0.014946
												CHANNELS 3 Xrotation Yrotation Zrotation
												End Site
												{
													OFFSET -0.007226 -0.006121 -0.011655
												}
											}
										}
									}
								}
							}
						}
					}
				}
			}
		}
	}
	JOINT pelvis.L
	{
		OFFSET 0.000000 0.000000 0.000000
		CHANNELS 6 Xposition Yposition Zposition Xrotation Yrotation Zrotation
		JOINT thigh.L
		{
			OFFSET 0.101675 0.001054 -0.000000
			CHANNELS 3 Xrotation Yrotation Zrotation
			JOINT shin.L
			{
				OFFSET 0.000000 -0.534800 0.041000
				CHANNELS 3 Xrotation Yrotation Zrotation
				JOINT foot.L
				{
					OFFSET 0.000000 -0.452000 -0.044800
					CHANNELS 3 Xrotation Yrotation Zrotation
					JOINT toe.L
					{
						OFFSET -0.000000 -0.068500 0.109600
						CHANNELS 3 Xrotation Yrotation Zrotation
						End Site
						{
							OFFSET -0.000000 0.000000 0.067200
						}
					}
				}
				JOINT heel.L
				{
					OFFSET 0.000000 -0.452000 -0.044800
					CHANNELS 3 Xrotation Yrotation Zrotation
					JOINT heel.02.L
					{
						OFFSET -0.038000 -0.085200 0.016200
						CHANNELS 6 Xposition Yposition Zposition Xrotation Yrotation Zrotation
						End Site
						{
							OFFSET 0.080000 -0.000000 0.000000
						}
					}
				}
			}
		}
	}
	JOINT pelvis.R
	{
		OFFSET 0.000000 0.000000 0.000000
		CHANNELS 6 Xposition Yposition Zposition Xrotation Yrotation Zrotation
		JOINT thigh.R
		{
			OFFSET -0.094325 0.001054 0.000000
			CHANNELS 3 Xrotation Yrotation Zrotation
			JOINT shin.R
			{
				OFFSET 0.000000 -0.534800 0.041000
				CHANNELS 3 Xrotation Yrotation Zrotation
				JOINT foot.R
				{
					OFFSET 0.000000 -0.452000 -0.044800
					CHANNELS 3 Xrotation Yrotation Zrotation
					JOINT toe.R
					{
						OFFSET -0.000000 -0.068500 0.109600
						CHANNELS 3 Xrotation Yrotation Zrotation
						End Site
						{
							OFFSET -0.000000 0.000000 0.067200
						}
					}
				}
				JOINT heel.R
				{
					OFFSET 0.000000 -0.452000 -0.044800
					CHANNELS 3 Xrotation Yrotation Zrotation
					JOINT heel.02.R
					{
						OFFSET 0.038000 -0.085200 0.016200
						CHANNELS 6 Xposition Yposition Zposition Xrotation Yrotation Zrotation
						End Site
						{
							OFFSET -0.080000 0.000000 -0.000000
						}
					}
				}
			}
		}
	}
}
MOTION
Frames: 4
Frame Time: 0.041667
-0.020433 0.225132 -0.010318 97.067527 55.561704 68.496743 -0.000000 -0.000001 0.000000 -0.000002 0.000001 0.000000 -0.000001 0.000000 0.000001 0.000003 0.000001 0.000001 0.000924 0.155148 0.009274 -45.874843 0.173770 -32.536456 0.019937 0.078966 0.057518 8.461102 2.351632 40.116088 0.177024 -0.020465 -0.095062 -41.777327 -18.362822 -22.612007 -26.272384 -47.691683 6.689653 0.000001 -0.000002 -0.000000 0.021770 -0.038291 0.012954 0.000000 0.000002 -0.000002 -0.000000 0.000001 0.000001 -0.000000 -0.000002 0.000004 -0.000004 0.000003 -0.000002 -0.009090 -0.002348 -0.024223 -0.000000 -0.000002 0.000001 -0.000001 0.000001 -0.000002 -0.000000 0.000000 -0.000002 0.032823 -0.025104 0.012281 0.000001 0.000001 0.000000 0.000001 -0.000002 -0.000009 -0.000002 0.000000 0.000001 -0.000000 0.000003 -0.000001 0.039230 -0.011402 0.008390 0.000002 -0.000001 0.000004 -0.000001 -0.000000 0.000001 0.000000 0.000002 0.000006 0.000001 -0.000003 0.000004 0.043417 0.002450 0.002889 -0.000001 0.000002 -0.000002 0.000004 0.000002 -0.000001 -0.000003 0.000002 0.000000 -0.000002 0.000001 -0.000000 -0.016662 0.078957 0.057696 21.930578 0.029605 -38.315964 -0.176972 -0.020537 -0.095144 -63.720768 11.878583 33.609517 -50.501442 25.053277 33.795783 -0.000001 0.000001 0.000002 -0.021773 -0.038278 0.012988 -0.000002 -0.000000 -0.000005 -0.000003 0.000001 -0.000003 -0.000001 0.000003 -0.000004 0.000001 0.000002 0.000004 0.009114 -0.002381 -0.024211 -0.000000 -0.000001 -0.000001 0.000006 -0.000003 -0.000003 0.000000 -0.000001 -0.000003 -0.032828 -0.025095 0.012286 0.000000 0.000001 -0.000001 0.000003 -0.000001 -0.000001 -0.000003 -0.000003 -0.000001 -0.000005 0.000001 -0.000004 -0.039192 -0.011488 0.008390 0.000002 0.000001 -0.000000 -0.000001 0.000002 0.000002 -0.000000 -0.000003 -0.000000 -0.000003 -0.000001 -0.000006 -0.043421 0.002443 0.002845 0.000001 -0.000001 -0.000003 -0.000000 0.000001 0.000001 -0.000004 -0.000004 -0.000000 0.000001 -0.000001 -0.000002 0.000000 0.000000 -0.000000 -2.569082 1.769063 -18.505856 -70.497313 -1.745990 -19.207626 21.672959 0.851231 -8.619420 0.000002 0.000000 -0.000000 0.000002 0.000001 -0.000002 -0.000002 -0.000001 -0.000001 -0.038000 -0.085200 0.016200 0.000001 0.000001 -0.000002 0.000000 0.000000 -0.000000 -2.442135 1.728043 -17.275538 -57.912225 1.336689 13.286399 -7.359312 2.487815 -25.998924 -0.000003 -0.000004 0.000000 0.000001 -0.000002 0.000001 0.000002 -0.000002 0.000001 0.038000 -0.085200 0.016200 -0.000002 0.000000 -0.000001 
-0.017397 0.223434 -0.009200 95.679250 55.535308 70.402592 0.000003 0.000001 0.000001 0.000000 0.000002 -0.000001 -0.000000 0.000001 0.000001 0.000001 0.000000 -0.000000 0.000924 0.155147 0.009274 -45.766458 0.176412 -30.562183 0.019937 0.078966 0.057518 11.514487 3.051660 38.353032 0.177024 -0.020465 -0.095062 -51.969875 -19.190975 -28.615969 -28.538325 -44.279700 2.078683 -0.000004 0.000002 -0.000001 0.021770 -0.038291 0.012954 0.000000 -0.000004 0.000001 -0.000003 -0.000001 0.000003 -0.000000 0.000002 0.000014 -0.000003 0.000003 -0.000000 -0.009090 -0.002348 -0.024223 -0.000000 0.000001 0.000001 0.000003 0.000003 -0.000000 -0.000001 -0.000003 0.000001 0.032823 -0.025104 0.012281 -0.000001 -0.000005 0.000006 0.000001 -0.000001 -0.000004 -0.000003 -0.000003 0.000007 -0.000000 0.000002 -0.000000 0.039230 -0.011402 0.008390 0.000000 -0.000000 0.000004 0.000002 0.000000 -0.000002 -0.000000 0.000003 0.000001 -0.000001 -0.000003 0.000002 0.043417 0.002450 0.002889 0.000000 -0.000004 0.000000 -0.000004 -0.000003 -0.000002 -0.000006 -0.000000 -0.000001 -0.000005 0.000002 -0.000002 -0.016662 0.078957 0.057696 29.455563 1.319036 -38.994349 -0.176972 -0.020537 -0.095144 -58.011146 14.255274 30.329161 -45.141810 28.904076 26.623128 -0.000003 0.000000 -0.000003 -0.021773 -0.038278 0.012988 0.000004 -0.000003 -0.000003 -0.000001 0.000003 -0.000004 0.000003 -0.000002 -0.000005 -0.000001 0.000002 0.000007 0.009114 -0.002381 -0.024212 -0.000000 -0.000001 -0.000001 0.000002 -0.000005 0.000002 -0.000000 0.000000 -0.000003 -0.032828 -0.025095 0.012286 0.000002 0.000000 -0.000004 -0.000004 0.000005 -0.000003 0.000004 -0.000001 -0.000001 -0.000004 0.000005 -0.000009 -0.039192 -0.011488 0.008390 0.000002 0.000002 -0.000007 -0.000000 0.000002 0.000000 0.000003 0.000003 -0.000001 -0.000001 0.000001 0.000000 -0.043421 0.002443 0.002845 0.000000 0.000001 -0.000003 0.000001 0.000007 -0.000003 0.000000 -0.000003 0.000002 -0.000006 -0.000001 -0.000002 0.000000 0.000000 -0.000000 -2.462252 1.925946 -20.304897 -59.013873 -2.141949 -25.155532 4.417753 1.229404 -12.502613 -0.000002 0.000001 0.000001 -0.000001 -0.000003 0.000002 0.000000 0.000000 0.000002 -0.038000 -0.085200 0.016200 0.000003 0.000000 0.000001 0.000000 0.000000 -0.000000 -2.332486 1.879473 -19.075033 -48.859465 0.982870 9.024481 -8.154746 2.322296 -24.151757 -0.000003 0.000004 -0.000002 -0.000000 0.000001 -0.000000 0.000002 -0.000001 0.000001 0.038000 -0.085200 0.016200 0.000000 0.000001 -0.000001 
-0.013177 0.224146 -0.045386 8.307754 1.528372 97.343597 -0.000001 0.000001 -0.000000 -0.000000 0.000001 0.000000 0.000000 0.000001 -0.000001 0.000000 -0.000000 -0.000001 0.000924 0.155148 0.009274 25.519672 -0.107984 -41.228050 0.019937 0.078966 0.057518 1.274598 -0.716360 25.872200 0.177025 -0.020465 -0.095062 40.631692 19.655852 -66.525250 3.996114 6.157967 3.148353 -0.000000 0.000001 0.000005 0.021770 -0.038291 0.012954 0.000004 0.000003 -0.000001 -0.000001 -0.000001 0.000001 0.000001 -0.000002 0.000008 0.000003 -0.000001 0.000001 -0.009090 -0.002348 -0.024223 -0.000000 -0.000003 0.000002 0.000001 0.000000 0.000001 -0.000002 0.000006 -0.000001 0.032823 -0.025104 0.012281 0.000002 0.000003 0.000002 0.000003 0.000004 0.000000 -0.000003 -0.000002 -0.000004 -0.000002 0.000001 0.000003 0.039230 -0.011402 0.008390 0.000003 0.000003 0.000001 0.000002 0.000005 -0.000000 0.000002 0.000002 0.000003 0.000004 -0.000001 -0.000000 0.043417 0.002450 0.002889 0.000002 0.000004 -0.000004 -0.000003 -0.000003 0.000001 0.000004 0.000001 0.000003 -0.000001 -0.000003 -0.000001 -0.016662 0.078957 0.057696 -17.288706 4.378879 -31.636787 -0.176972 -0.020537 -0.095144 17.308316 -19.845943 46.413745 2.357660 -2.266057 1.864371 0.000003 -0.000001 0.000000 -0.021773 -0.038278 0.012988 0.000000 0.000002 -0.000008 -0.000003 -0.000002 0.000000 0.000002 -0.000000 -0.000004 -0.000000 0.000000 -0.000001 0.009114 -0.002381 -0.024211 -0.000000 -0.000003 0.000000 0.000001 0.000002 0.000004 0.000002 0.000002 -0.000004 -0.032828 -0.025095 0.012286 0.000002 -0.000000 -0.000003 0.000001 -0.000000 -0.000003 0.000003 0.000001 0.000001 0.000002 0.000003 -0.000004 -0.039192 -0.011488 0.008390 -0.000001 0.000002 -0.000002 -0.000000 0.000006 -0.000002 0.000005 -0.000004 -0.000000 -0.000002 -0.000001 -0.000000 -0.043421 0.002443 0.002844 0.000002 0.000002 -0.000005 -0.000002 0.000005 -0.000001 -0.000003 -0.000000 -0.000002 0.000001 0.000004 -0.000003 -0.000000 0.000000 -0.000000 -2.170490 0.023211 -1.222244 -81.939710 -0.188252 1.633449 129.730564 0.543553 -5.490232 -0.000003 -0.000000 -0.000000 0.000002 -0.000000 0.000000 -0.000002 -0.000000 -0.000000 -0.038000 -0.085200 0.016200 -0.000000 -0.000000 -0.000000 -0.000000 0.000000 -0.000000 -2.123131 0.022691 0.011921 -84.454517 1.601411 16.275315 119.636378 0.348683 -3.517337 -0.000003 0.000001 0.000000 0.000002 0.000001 -0.000000 0.000003 0.000001 -0.000000 0.038000 -0.085200 0.016200 -0.000003 -0.000001 -0.000000 
-0.017376 0.224577 -0.008347 101.836399 51.225657 66.533453 0.000002 0.000000 -0.000001 0.000003 -0.000000 -0.000001 0.000005 0.000001 0.000000 0.000003 0.000001 -0.000001 0.000924 0.155148 0.009274 -48.931403 0.205876 -26.402564 0.019937 0.078966 0.057518 11.739333 2.682321 36.464133 0.177025 -0.020465 -0.095062 -56.939951 -15.887396 -32.515126 -30.668140 -37.049623 -5.806746 0.000005 0.000002 0.000001 0.021770 -0.038291 0.012954 0.000000 0.000006 -0.000002 0.000000 -0.000001 0.000001 -0.000003 -0.000002 0.000006 -0.000002 -0.000001 0.000001 -0.009090 -0.002348 -0.024223 0.000003 -0.000003 0.000001 -0.000002 -0.000003 -0.000001 0.000002 0.000003 -0.000002 0.032823 -0.025104 0.012281 -0.000001 0.000003 0.000002 -0.000002 0.000003 -0.000003 -0.000004 0.000000 0.000001 -0.000000 0.000003 -0.000001 0.039230 -0.011402 0.008390 -0.000000 0.000004 0.000002 -0.000001 0.000002 -0.000004 0.000000 0.000003 0.000001 -0.000001 -0.000002 0.000003 0.043417 0.002450 0.002889 -0.000001 0.000007 -0.000002 -0.000000 -0.000001 -0.000000 -0.000001 -0.000003 0.000001 0.000002 0.000001 -0.000001 -0.016662 0.078956 0.057696 35.057237 1.440327 -37.594225 -0.176972 -0.020537 -0.095144 -63.110156 8.956401 34.388015 -32.453613 19.624295 27.902388 -0.000001 -0.000001 0.000002 -0.021773 -0.038278 0.012988 -0.000002 -0.000002 -0.000005 -0.000003 0.000006 0.000001 -0.000000 -0.000000 -0.000003 0.000003 0.000002 0.000007 0.009114 -0.002381 -0.024211 0.000003 0.000002 0.000003 -0.000000 -0.000002 -0.000001 0.000003 -0.000000 0.000001 -0.032828 -0.025095 0.012286 -0.000002 -0.000001 -0.000005 -0.000005 -0.000001 -0.000001 -0.000002 0.000000 0.000000 -0.000003 0.000003 -0.000000 -0.039192 -0.011488 0.008390 -0.000001 0.000001 0.000003 0.000003 0.000003 -0.000002 -0.000001 -0.000003 0.000003 0.000003 0.000003 -0.000000 -0.043421 0.002443 0.002845 -0.000002 0.000001 -0.000005 -0.000003 0.000001 0.000001 -0.000004 -0.000001 0.000002 -0.000001 0.000002 0.000001 -0.000000 0.000000 -0.000000 -2.469085 1.722419 -18.372977 -58.691406 -2.279141 -27.149748 7.216967 1.684002 -17.252807 -0.000003 -0.000001 -0.000001 -0.000000 0.000000 -0.000004 -0.000003 0.000000 -0.000001 -0.038000 -0.085200 0.016200 0.000003 0.000000 -0.000001 0.000000 0.000000 -0.000000 -2.347587 1.683472 -17.142410 -49.993471 0.953701 8.570860 11.073891 2.464120 -25.732627 0.000000 -0.000005 -0.000000 0.000002 -0.000001 -0.000002 0.000003 -0.000003 0.000001 0.038000 -0.085200 0.016200 -0.000003 -0.000002 0.000000 
